<?xml version="1.0" encoding="UTF-8"?>
<svg version="1.1" xmlns="http://www.w3.org/2000/svg" width="1536" height="1024">
<path d="M0 0 C5.10015256 4.88931948 9.29136559 10.58286201 13.55517578 16.19335938 C15.80912631 19.14627994 18.09722673 22.07216481 20.38330078 25.00024414 C22.74929181 28.03249056 25.1061747 31.07176111 27.46337891 34.11083984 C29.02788837 36.12497912 30.59730939 38.13518658 32.16796875 40.14453125 C33.07046544 41.30456853 33.97281912 42.46471709 34.875 43.625 C35.65359375 44.62273437 36.4321875 45.62046875 37.234375 46.6484375 C40.67703205 51.38564741 41.63809717 54.29807287 41.125 60.25 C38.17105683 69.29645095 29.19069904 72.83449799 21.3203125 76.94921875 C20.53148682 77.36409546 19.74266113 77.77897217 18.92993164 78.2064209 C16.99608148 79.22311956 15.06109088 80.23757677 13.125 81.25 C21.50579382 81.38157542 29.88660389 81.51204243 38.26743603 81.64115143 C42.16031414 81.70115589 46.05318592 81.76152116 49.94604492 81.82275391 C53.71321106 81.88199557 57.48039157 81.94023347 61.24758339 81.99781799 C62.67425385 82.01979402 64.10091909 82.04211256 65.52757835 82.06480408 C73.46660086 82.19083092 81.40266755 82.26290562 89.34281921 82.24871826 C129.7724891 82.26734403 161.71772014 87.52806746 191.53320312 116.53857422 C194.97180589 120.23559958 198.02906079 124.26580946 201.125 128.25 C201.24504395 127.32775635 201.36508789 126.4055127 201.48876953 125.45532227 C201.95109787 121.99133917 202.43441906 118.53158977 202.93164062 115.07250977 C203.1414488 113.58309695 203.3431473 112.0925159 203.53613281 110.60083008 C205.80214408 93.17940844 205.80214408 93.17940844 212.125 87.25 C218.69203151 82.27774907 225.15281392 82.67163288 233.13037109 82.70410156 C234.55255762 82.69535481 235.97473433 82.6848652 237.39689636 82.67277527 C241.25662799 82.64492213 245.11603877 82.64151175 248.9758563 82.64249516 C253.06068584 82.6393418 257.1453766 82.61364209 261.23013306 82.59051514 C269.00798288 82.54990364 276.78574941 82.52962321 284.56368887 82.51654124 C293.25185288 82.50093053 301.93986265 82.46240592 310.62794077 82.42195439 C330.46023607 82.33053855 350.29252416 82.27977687 370.125 82.25 C371.34434109 82.24814445 372.56368217 82.24628891 373.81997299 82.24437714 C380.73545064 82.23447805 387.65092153 82.22787825 394.56640625 82.2265625 C395.35393154 82.22640388 396.14145683 82.22624527 396.95284653 82.22608185 C406.53166652 82.22630742 416.10919784 82.27358148 425.6875 82.375 C426.70124191 82.38311707 427.71498383 82.39123413 428.75944519 82.39959717 C435.42265671 82.51872723 439.39726904 84.59121956 444.125 89.25 C448.93315992 95.10669774 451.35748385 101.96287202 453.125 109.25 C456.7081764 105.85966816 459.47347323 102.46620222 462.125 98.3125 C470.00828145 86.27311707 470.00828145 86.27311707 476.125 83.25 C479.32077026 82.84454346 479.32077026 82.84454346 482.97216797 82.80175781 C483.64130722 82.78995987 484.31044647 82.77816193 484.99986267 82.76600647 C487.2057007 82.73081574 489.41111855 82.71663802 491.6171875 82.703125 C493.16595871 82.68370536 494.71471616 82.66315816 496.26345825 82.64154053 C499.51317785 82.59920322 502.76279725 82.56655865 506.01269531 82.54150391 C510.13548937 82.50952236 514.25781264 82.45990676 518.38033867 82.40358353 C521.58404586 82.36078713 524.78780064 82.32456409 527.99161148 82.2904892 C529.50874342 82.27418093 531.02586282 82.25665012 532.54296494 82.23777008 C540.13581977 82.14901219 547.71625658 82.17174455 555.30126953 82.56152344 C556.47207062 82.61967224 557.6428717 82.67782104 558.84915161 82.73773193 C566.55408933 83.94260868 570.64537178 88.28110223 575.125 94.25 C577.72559959 98.65971235 577.69734083 103.26695018 577.125 108.25 C574.52662863 116.94591235 568.54610407 124.45338538 563.5 131.875 C562.6386675 133.15190189 561.77798672 134.42924364 560.91796875 135.70703125 C559.19593881 138.26405082 557.47048988 140.818712 555.74267578 143.37182617 C551.88868743 149.07308598 548.07903278 154.80392574 544.26731873 160.53349304 C541.89948225 164.0915261 539.52763533 167.64688703 537.15600586 171.20239258 C534.51817116 175.15714757 531.88508148 179.11502967 529.25390625 183.07421875 C509.70078916 212.47852461 509.70078916 212.47852461 506.33203125 216.265625 C504.89132283 218.17659205 504.89132283 218.17659205 505.37573242 220.4206543 C506.29547701 223.89374653 507.5627769 227.17886252 508.90625 230.50390625 C509.19170181 231.22097244 509.47715363 231.93803864 509.77125549 232.67683411 C510.39256299 234.23689176 511.01568676 235.79622702 511.64041138 237.35491943 C513.34162553 241.6012318 515.02779082 245.85351459 516.71484375 250.10546875 C517.07074081 251.00170959 517.42663788 251.89795044 517.7933197 252.8213501 C521.98737032 263.39828587 526.09047167 274.01018866 530.1875 284.625 C530.54199219 285.54217804 530.89648438 286.45935608 531.26171875 287.40432739 C533.25314681 292.55727474 535.23637666 297.71325615 537.21112061 302.87261963 C538.10848581 305.20703972 539.01655536 307.53706842 539.92626953 309.86669922 C540.47587952 311.29122791 541.02521197 312.71586373 541.57421875 314.140625 C542.28904419 315.97802246 542.28904419 315.97802246 543.01831055 317.85253906 C545.0760241 324.16957895 545.5343224 329.8321535 542.9765625 336.03515625 C538.81740722 343.50623147 533.48217372 348.74637156 525.125 351.25 C521.58261483 351.70806114 518.06500997 351.76170172 514.49609375 351.796875 C513.470569 351.81719788 512.44504425 351.83752075 511.38844299 351.85845947 C509.21586367 351.89858097 507.04314681 351.9317769 504.87036133 351.95849609 C501.6246635 351.99922003 498.38001885 352.06206527 495.13476562 352.12890625 C484.74244876 352.31806115 474.36115923 352.31859082 463.97265625 351.953125 C463.08025742 351.9297406 462.18785858 351.9063562 461.26841736 351.88226318 C455.01663481 351.60737047 450.15363812 350.62351107 445.10131836 346.6640625 C439.97323355 340.83521102 437.3727713 334.47416594 434.6875 327.25 C434.24212891 326.09371094 433.79675781 324.93742187 433.33789062 323.74609375 C432.25163208 320.9194855 431.18123522 318.08793306 430.125 315.25 C424.78857478 322.38524916 419.84028703 329.65346065 415.15893555 337.23413086 C411.30258276 343.34921473 407.35023904 349.08202393 400.125 351.25 C397.2645441 351.44080141 394.50250076 351.52859076 391.64311218 351.51742554 C390.36497712 351.52422221 390.36497712 351.52422221 389.06102115 351.53115618 C386.20688534 351.54381257 383.35294005 351.54217901 380.4987793 351.54052734 C378.45193232 351.54651183 376.4050876 351.55331719 374.35824585 351.56088257 C368.79825268 351.57855822 363.23832107 351.58323862 357.67830253 351.58451414 C353.03620593 351.58641331 348.39412366 351.59377109 343.75203258 351.60085833 C332.79895509 351.61714597 321.84591047 351.62202695 310.89282227 351.62060547 C299.59624089 351.61940404 288.29985057 351.64050541 277.00331753 351.6720928 C267.30295052 351.69824987 257.60264592 351.70897299 247.90224391 351.70769465 C242.10941498 351.70718484 236.31675581 351.71287891 230.52396202 351.73405075 C225.07463338 351.75342331 219.62563662 351.75356413 214.17629623 351.73901749 C212.17846377 351.73692706 210.18061059 351.74164417 208.18281364 351.7537384 C205.45076649 351.76920382 202.71986178 351.75987424 199.98783875 351.74447632 C199.20134388 351.75476344 198.41484902 351.76505057 197.60452098 351.77564943 C191.20193337 351.69616447 186.13246734 349.72213815 181.171875 345.64453125 C172.99868908 335.67422914 171.92034567 325.82487158 172.125 313.25 C171.50625 313.889375 170.8875 314.52875 170.25 315.1875 C169.21013931 316.21017291 168.16816911 317.23070203 167.125 318.25 C166.17173828 319.21486328 166.17173828 319.21486328 165.19921875 320.19921875 C140.6901413 343.77703592 106.5103175 351.40256317 73.46687317 351.39717102 C72.23805331 351.40084771 71.00923346 351.4045244 69.74317664 351.4083125 C66.3629887 351.41736446 62.982849 351.42203228 59.60265362 351.42470181 C55.94552888 351.42863529 52.28841779 351.4382104 48.63130188 351.44691467 C39.82154434 351.46658101 31.01178582 351.47672707 22.20201185 351.48564246 C18.04742597 351.49003651 13.89284135 351.49539994 9.73825645 351.50063133 C-4.07761845 351.51762432 -17.8934926 351.53212156 -31.70937634 351.53938007 C-35.28598723 351.54128972 -38.86259812 351.54321011 -42.43920898 351.54516602 C-43.32807442 351.54564976 -44.21693985 351.5461335 -45.13274059 351.5466319 C-59.55349685 351.55494448 -73.9741705 351.58031067 -88.39489063 351.61274669 C-103.2165218 351.64581202 -118.03811092 351.66382785 -132.85977918 351.66702431 C-141.17543863 351.66918854 -149.49097714 351.67792594 -157.80660057 351.70348549 C-164.88196452 351.72518423 -171.95717807 351.73324652 -179.03257152 351.72351871 C-182.64075647 351.71897326 -186.24863098 351.72087458 -189.85677338 351.74028015 C-193.77058586 351.76114818 -197.68397037 351.75093021 -201.5978241 351.73774719 C-202.73430254 351.74871644 -203.87078098 351.75968568 -205.04169816 351.77098733 C-212.59281293 351.70952124 -218.39932427 350.75852711 -223.94140625 345.1640625 C-228.53208995 338.14019657 -232.28555405 330.82165801 -235.875 323.25 C-236.02195312 324.3121875 -236.16890625 325.374375 -236.3203125 326.46875 C-238.74963013 342.3882133 -238.74963013 342.3882133 -244.875 347.25 C-252.29686618 352.06663271 -259.35591312 351.85407838 -267.99609375 351.81640625 C-269.46525972 351.82165092 -270.93442232 351.82793047 -272.40357971 351.83518982 C-275.47242149 351.84555738 -278.54079854 351.84108604 -281.60961914 351.82641602 C-285.52134722 351.80923702 -289.43160506 351.83272945 -293.34316921 351.86790562 C-296.37434928 351.8899812 -299.40518304 351.88841383 -302.43641853 351.8801403 C-303.87757034 351.87932624 -305.31874899 351.88608432 -306.75982475 351.90091133 C-315.26926103 351.97505558 -322.0071071 351.6515538 -328.875 346.25 C-335.05478711 339.66301762 -337.32209386 329.72203365 -339.875 321.25 C-340.32488281 321.5903125 -340.77476562 321.930625 -341.23828125 322.28125 C-347.06729935 326.67345603 -352.92803267 331.01850402 -358.875 335.25 C-359.51953125 335.71535156 -360.1640625 336.18070313 -360.828125 336.66015625 C-382.95572489 351.62033791 -415.37191803 354.62109394 -441 350.0625 C-459.90211237 346.31464788 -476.06999854 338.45060336 -490.875 326.25 C-492.31939453 325.08791016 -492.31939453 325.08791016 -493.79296875 323.90234375 C-510.01113807 310.04084369 -523.26406936 289.93284538 -528.875 269.25 C-529 266.375 -529 266.375 -528.875 264.25 C-530.12990234 265.10271484 -530.12990234 265.10271484 -531.41015625 265.97265625 C-552.96060997 280.38352273 -573.94039004 285.97106218 -599.86987305 286.12402344 C-601.94744861 286.12362024 -601.94744861 286.12362024 -603.875 287.25 C-604.38415644 289.27390017 -604.38415644 289.27390017 -604.60522461 291.75048828 C-604.77066017 293.18800949 -604.77066017 293.18800949 -604.93943787 294.65457153 C-605.05094681 295.69926605 -605.16245575 296.74396057 -605.27734375 297.8203125 C-605.53057416 300.01823202 -605.78383019 302.2161486 -606.03710938 304.4140625 C-606.42609075 307.8896491 -606.81146411 311.36561287 -607.19506836 314.84179688 C-607.56774088 318.18988103 -607.95336039 321.53629883 -608.33984375 324.8828125 C-608.44932846 325.91536163 -608.55881317 326.94791077 -608.6716156 328.01174927 C-609.40763536 334.35225453 -610.21523466 340.20762341 -614.55859375 345.17578125 C-615.13738281 345.63339844 -615.71617187 346.09101562 -616.3125 346.5625 C-617.17681641 347.26826172 -617.17681641 347.26826172 -618.05859375 347.98828125 C-622.21605246 350.87615042 -625.15519545 351.50636883 -630.26074219 351.54052734 C-631.55598816 351.55328705 -632.85123413 351.56604675 -634.18572998 351.57919312 C-635.5977768 351.58225148 -637.00982562 351.58447886 -638.421875 351.5859375 C-639.87673065 351.59236874 -641.33158502 351.59909735 -642.78643799 351.60610962 C-645.83617141 351.61807826 -648.88579163 351.62179106 -651.93554688 351.62060547 C-655.82706815 351.62040271 -659.71785558 351.64766086 -663.60920334 351.68214989 C-666.61541009 351.70448837 -669.62144247 351.70844085 -672.62772369 351.70738602 C-674.06133799 351.70973323 -675.49495774 351.71850686 -676.92848969 351.73405075 C-686.02778212 351.82344863 -693.13292892 351.78400946 -700.01171875 345.20703125 C-701.67202999 342.91103409 -703.30143687 340.60652537 -704.875 338.25 C-705.38546875 337.54746094 -705.8959375 336.84492187 -706.421875 336.12109375 C-713.00653611 326.07763593 -709.66864231 312.89508017 -708.0390625 301.69140625 C-707.8417598 300.28934788 -707.64524463 298.88717849 -707.44944763 297.48490906 C-706.92060226 293.71380109 -706.38071782 289.94435089 -705.83864212 286.17512512 C-705.26290496 282.15834456 -704.69741614 278.14011974 -704.13061523 274.12207031 C-703.06903411 266.60801037 -701.99819352 259.09530309 -700.92325687 251.58314323 C-700.14451184 246.13972741 -699.36917562 240.6958402 -698.59716797 235.25146484 C-698.44395757 234.17111418 -698.44395757 234.17111418 -698.28765202 233.06893826 C-698.08353771 231.62954443 -697.87943133 230.19014949 -697.67533302 228.7507534 C-696.36170397 219.48795108 -695.04438086 210.22572157 -693.70874023 200.96606445 C-693.60638974 200.25626277 -693.50403925 199.54646109 -693.39858723 198.81515026 C-693.29583076 198.10253694 -693.19307428 197.38992361 -693.08720398 196.65571594 C-692.93242867 195.58231177 -692.93242867 195.58231177 -692.7745266 194.48722267 C-692.56548875 193.03755699 -692.35639376 191.58789954 -692.14724159 190.13825035 C-690.76229993 180.53157288 -689.40763173 170.92112271 -688.08110523 161.30620193 C-687.10986342 154.26665839 -686.12755644 147.22871654 -685.13801098 140.19172287 C-684.54296008 135.95475995 -683.95427611 131.71712632 -683.38088989 127.47717285 C-682.84532598 123.51721045 -682.29325991 119.55988873 -681.72903061 115.60391235 C-681.52528294 114.15419385 -681.32754579 112.70361492 -681.13650894 111.25216675 C-678.75438953 93.21329255 -678.75438953 93.21329255 -672.21028137 86.55665588 C-666.49201085 82.30937298 -660.27300162 82.51918059 -653.3984375 82.54296875 C-652.19675934 82.52784744 -650.99508118 82.51272614 -649.75698853 82.49714661 C-645.92113693 82.45437296 -642.08606541 82.44547167 -638.25 82.4375 C-635.72654116 82.4143267 -633.2031015 82.38895555 -630.6796875 82.36132812 C-623.41143064 82.28925005 -616.14356557 82.26473948 -608.875 82.25 C-606.75756803 82.2426055 -604.64013637 82.23512297 -602.52270508 82.22753906 C-584.34051978 82.17761965 -584.34051978 82.17761965 -575.8125 82.625 C-574.94947266 82.66971436 -574.08644531 82.71442871 -573.19726562 82.76049805 C-551.16157217 84.02528083 -531.41353376 90.27707615 -514.875 105.25 C-514.09511719 105.94867188 -513.31523438 106.64734375 -512.51171875 107.3671875 C-507.45488354 112.14355958 -503.77466875 117.14631555 -500.28515625 123.16015625 C-499.81980469 123.84980469 -499.35445312 124.53945313 -498.875 125.25 C-498.215 125.25 -497.555 125.25 -496.875 125.25 C-495.30080515 123.50340718 -495.30080515 123.50340718 -493.6875 121.25 C-493.05714844 120.42371094 -492.42679688 119.59742188 -491.77734375 118.74609375 C-490.83568359 117.51052734 -490.83568359 117.51052734 -489.875 116.25 C-474.20258381 95.86407518 -448.51647992 84.71181929 -423.875 80.25 C-422.82570313 80.05664062 -421.77640625 79.86328125 -420.6953125 79.6640625 C-386.57766629 75.9662399 -356.95707218 82.94847095 -329.875 104.25 C-327.25 106.625 -327.25 106.625 -324.875 109.25 C-324.14152344 110.02601563 -323.40804688 110.80203125 -322.65234375 111.6015625 C-315.55053812 119.23234572 -315.55053812 119.23234572 -313.875 124.25 C-313.215 124.25 -312.555 124.25 -311.875 124.25 C-311.83761719 123.41339844 -311.80023438 122.57679688 -311.76171875 121.71484375 C-310.27029343 95.30784245 -310.27029343 95.30784245 -301.875 87 C-301.1325 86.24976563 -301.1325 86.24976563 -300.375 85.484375 C-292.38923481 78.91275573 -272.30158606 82.09982239 -262.52783203 82.11962891 C-259.38178692 82.12498844 -256.23588453 82.1196567 -253.08984375 82.11328125 C-222.28873821 82.10034658 -222.28873821 82.10034658 -216.875 87.25 C-213.93799455 90.7249718 -211.41707261 94.32073267 -209.125 98.25 C-208.7125 98.91 -208.3 99.57 -207.875 100.25 C-207.215 100.25 -206.555 100.25 -205.875 100.25 C-205.62363281 99.69441406 -205.37226562 99.13882813 -205.11328125 98.56640625 C-203.66909572 95.86482259 -201.95968372 93.59253405 -200.0625 91.1875 C-199.06283203 89.90166016 -199.06283203 89.90166016 -198.04296875 88.58984375 C-194.02957464 84.25827065 -190.66823302 82.91063657 -184.73687744 82.61166382 C-183.93167664 82.58770538 -183.12647583 82.56374695 -182.296875 82.5390625 C-181.00037018 82.48705185 -181.00037018 82.48705185 -179.67767334 82.43399048 C-172.2461006 82.18538107 -164.82389556 82.27670201 -157.390625 82.3984375 C-156.22825317 82.41553772 -155.06588135 82.43263794 -153.86828613 82.45025635 C-144.21289319 82.59593746 -144.21289319 82.59593746 -139.45117188 82.72314453 C-135.88905351 82.81405375 -132.32864633 82.86006282 -128.765625 82.8984375 C-127.68847229 82.93770355 -126.61131958 82.9769696 -125.50152588 83.01742554 C-119.94347354 83.03797582 -116.62457889 82.61922135 -112.34082031 78.91455078 C-111.16125145 77.71647833 -110.00442697 76.49545374 -108.875 75.25 C-107.76450393 74.15210039 -106.650555 73.05766753 -105.53125 71.96875 C-104.47650194 70.89845283 -103.42438588 69.82555511 -102.375 68.75 C-98.38261172 64.65805091 -94.2721213 60.80911415 -89.94580078 57.07128906 C-86.38795397 53.94212881 -82.9886544 50.6467628 -79.5625 47.375 C-74.04492635 42.13991846 -68.48036879 37.1424391 -62.515625 32.421875 C-58.77640729 29.34642374 -55.25752427 26.04462737 -51.7565918 22.7019043 C-48.08689393 19.25 -48.08689393 19.25 -45.875 19.25 C-45.875 18.59 -45.875 17.93 -45.875 17.25 C-42.91682281 14.49931019 -39.70580899 12.05681804 -36.53076172 9.56152344 C-34.86063603 8.23862234 -33.2130045 6.89108806 -31.56640625 5.5390625 C-21.73543692 -2.4322284 -11.51763491 -9.24225694 0 0 Z " fill="#030B11" transform="translate(817.875,283.75)"/>
<path d="M0 0 C9.85901776 -0.07007877 19.71797448 -0.12310095 29.57719231 -0.15543652 C34.15718372 -0.17097033 38.73700245 -0.19197845 43.31689453 -0.22631836 C47.75195085 -0.25935719 52.18684303 -0.27694484 56.62201309 -0.28463173 C58.29856061 -0.29009662 59.97510105 -0.30076281 61.651577 -0.31719017 C87.66334778 -0.56150588 111.13893043 4.34988327 130.66015625 22.69921875 C131.81837891 23.83810547 131.81837891 23.83810547 133 25 C133.69996094 25.68707031 134.39992188 26.37414062 135.12109375 27.08203125 C150.91319967 43.67451681 157.53552813 66.51809838 157.28540039 88.99804688 C157.09152323 96.42723869 156.33555792 103.68513392 155 111 C154.88172852 111.6511377 154.76345703 112.30227539 154.64160156 112.97314453 C150.23012478 136.31580601 139.93684133 157.36775002 124 175 C123.11957031 175.97453125 122.23914063 176.9490625 121.33203125 177.953125 C101.36407784 199.29593235 73.05177279 211.95502806 44 214 C38.09212497 214.13620475 32.186446 214.11665623 26.27734375 214.09765625 C24.56384828 214.09578832 22.85035228 214.09436619 21.13685608 214.09336853 C16.65380344 214.08957284 12.17078384 214.07976812 7.68774414 214.06866455 C3.10238085 214.05838666 -1.48298785 214.05385731 -6.06835938 214.04882812 C-15.04558733 214.03814287 -24.02279091 214.02110235 -33 214 C-33.07410993 209.56213426 -32.88015066 205.39270841 -32.16479492 201.01391602 C-31.97963318 199.86253143 -31.79447144 198.71114685 -31.60369873 197.52487183 C-31.39803284 196.28045319 -31.19236694 195.03603455 -30.98046875 193.75390625 C-30.76362812 192.4156269 -30.54735521 191.07725546 -30.331604 189.73880005 C-29.8667232 186.86001405 -29.39878103 183.98174961 -28.92843628 181.10385132 C-27.65166206 173.28767121 -26.39707682 165.46790498 -25.140625 157.6484375 C-24.945248 156.43409436 -24.945248 156.43409436 -24.745924 155.19521904 C-21.99947633 138.11803652 -19.37258116 121.02353089 -16.77691269 103.92287064 C-15.76081132 97.23083104 -14.74152763 90.53927456 -13.72265625 83.84765625 C-13.61131662 83.11623602 -13.499977 82.38481579 -13.38526344 81.63123131 C-10.96322365 65.72337937 -8.51520788 49.81960481 -6.04226685 33.91958618 C-5.59966328 31.0732917 -5.15869342 28.22675191 -4.71920776 25.37997437 C-4.11612397 21.47406959 -3.50763005 17.56901946 -2.8984375 13.6640625 C-2.71981674 12.50325668 -2.54119598 11.34245087 -2.35716248 10.14646912 C-2.19208694 9.09476028 -2.02701141 8.04305145 -1.85693359 6.95947266 C-1.71468353 6.0441275 -1.57243347 5.12878235 -1.4258728 4.18569946 C-1 2 -1 2 0 0 Z " fill="#FDFDFD" transform="translate(855,387)"/>
<path d="M0 0 C18.48 0 36.96 0 56 0 C54.87516074 12.3732319 54.87516074 12.3732319 54.18383789 16.60058594 C54.03020279 17.55237732 53.87656769 18.5041687 53.71827698 19.48480225 C53.55472214 20.47466125 53.3911673 21.46452026 53.22265625 22.484375 C53.05124619 23.54303772 52.87983612 24.60170044 52.70323181 25.69244385 C52.15989973 29.04555605 51.61159615 32.3978273 51.0625 35.75 C46.64698274 59.24509163 46.64698274 59.24509163 45 83 C45.35078613 82.52393311 45.70157227 82.04786621 46.06298828 81.55737305 C46.56040527 80.88230713 47.05782227 80.20724121 47.5703125 79.51171875 C48.12960449 78.75262207 48.68889648 77.99352539 49.26513672 77.21142578 C50.52435562 75.50260391 51.78380243 73.79394995 53.04345703 72.08544922 C56.19562944 67.80945203 59.34510516 63.53157466 62.484375 59.24609375 C69.32273619 49.92087676 76.26909604 40.68827294 83.30224609 31.5090332 C87.87021625 25.53041572 92.29914412 19.47828336 96.59375 13.30078125 C97.15213562 12.54984444 97.15213562 12.54984444 97.72180176 11.78373718 C99.09130301 9.92018537 99.09130301 9.92018537 100.50378418 7.52449036 C103.18675503 3.5254275 105.25129989 0.51420568 109.99597168 -0.88096619 C113.59884118 -1.15623586 117.07717298 -1.12572191 120.6875 -0.9765625 C121.98574707 -0.96241302 123.28399414 -0.94826355 124.62158203 -0.9336853 C128.04955742 -0.89576048 131.47319681 -0.79779403 134.8994751 -0.68664551 C138.40504288 -0.58376527 141.91132186 -0.53855496 145.41796875 -0.48828125 C152.28041122 -0.38149744 159.13999674 -0.2111669 166 0 C159.73185203 9.5134802 159.73185203 9.5134802 156.66796875 13.39453125 C156.10190918 14.11592285 155.53584961 14.83731445 154.95263672 15.58056641 C154.07889404 16.68537354 154.07889404 16.68537354 153.1875 17.8125 C151.94324751 19.39914161 150.69975738 20.98638135 149.45703125 22.57421875 C148.86100098 23.33524902 148.2649707 24.0962793 147.65087891 24.88037109 C144.02774925 29.53225096 140.51915985 34.2692263 137 39 C127.10843692 52.25034658 117.08478782 65.3963032 107 78.5 C105.83017578 80.03140625 105.83017578 80.03140625 104.63671875 81.59375 C102.61380132 84.22854242 100.54083106 86.81938753 98.45703125 89.40625 C97.24216111 90.93747906 96.02731714 92.46872889 94.8125 94 C94.22275391 94.71865234 93.63300781 95.43730469 93.02539062 96.17773438 C92.48720703 96.86158203 91.94902344 97.54542969 91.39453125 98.25 C90.90831299 98.85328125 90.42209473 99.4565625 89.92114258 100.078125 C88.61474015 102.80380746 89.10744945 104.13436029 90 107 C90.91951055 109.19161668 91.90101073 111.35762587 92.921875 113.50390625 C93.21799179 114.130728 93.51410858 114.75754974 93.81919861 115.40336609 C94.45780795 116.75357728 95.09891916 118.10260745 95.74227905 119.45056152 C96.76555288 121.59509506 97.78178318 123.74283846 98.79614258 125.89160156 C100.18891476 128.84103761 101.58385781 131.78942753 102.98095703 134.73681641 C136 204.42323145 136 204.42323145 136 214 C115.54 214 95.08 214 74 214 C67.10745702 199.06615688 67.10745702 199.06615688 64.58984375 192.39453125 C64.30034851 191.63865723 64.01085327 190.8827832 63.71258545 190.10400391 C62.78341599 187.67506034 61.86044934 185.24381296 60.9375 182.8125 C60.28600171 181.1068474 59.63405777 179.40136495 58.98168945 177.69604492 C57.31262059 173.3299793 55.64858948 168.96201596 53.98657227 164.59326172 C51.50703381 158.07565284 49.02355159 151.55955004 46.53787231 145.04428101 C45.702172 142.85100631 44.86933588 140.65666042 44.03686523 138.4621582 C43.52856252 137.12708564 43.02018468 135.79204167 42.51171875 134.45703125 C42.07303467 133.30178955 41.63435059 132.14654785 41.18237305 130.95629883 C40.09087184 128.08355217 40.09087184 128.08355217 38.84301758 125.78393555 C38 124 38 124 38 121 C37.34 121 36.68 121 36 121 C35.89171875 122.30324219 35.7834375 123.60648437 35.671875 124.94921875 C35.2097319 129.56661003 34.52995064 134.13160771 33.765625 138.70703125 C33.58744736 139.77664093 33.58744736 139.77664093 33.40567017 140.86785889 C33.15218208 142.38837366 32.89865085 143.90888125 32.64508057 145.42938232 C28.86928864 168.20487988 26.42455987 191.03799181 24 214 C5.85 214 -12.3 214 -31 214 C-29.85366225 195.65859603 -29.85366225 195.65859603 -28.50390625 187.671875 C-28.35523102 186.74948532 -28.20655579 185.82709564 -28.05337524 184.87675476 C-27.73156476 182.88217077 -27.4065952 180.88809427 -27.07870483 178.89450073 C-26.15580183 173.27256739 -25.26228341 167.6459479 -24.3671875 162.01953125 C-24.07907448 160.21193077 -24.07907448 160.21193077 -23.78514099 158.36781311 C-21.57704185 144.44679137 -19.53318613 130.50199858 -17.49675751 116.55508804 C-16.97981088 113.0153842 -16.4617673 109.47584088 -15.94384766 105.9362793 C-15.7330797 104.49572295 -15.52231516 103.0551661 -15.31155396 101.61460876 C-15.20627506 100.89505445 -15.10099617 100.17550014 -14.99252701 99.43414116 C-14.7784068 97.97043111 -14.56434398 96.50671267 -14.35033798 95.04298592 C-11.81606392 77.70966031 -9.25164085 60.38082907 -6.67837524 43.05325317 C-6.18645494 39.74059044 -5.6952392 36.42782449 -5.2046814 33.11495972 C-4.62913757 29.22821824 -4.05238228 25.34165856 -3.47464752 21.45524216 C-3.26219292 20.02477572 -3.05015212 18.59424776 -2.83855438 17.16365433 C-2.5484201 15.20275872 -2.25655155 13.24211995 -1.96459961 11.28149414 C-1.80156845 10.18309708 -1.63853729 9.08470001 -1.4705658 7.95301819 C-1.04631749 5.29066371 -0.52871826 2.64359131 0 0 Z " fill="#FDFDFD" transform="translate(528,387)"/>
<path d="M0 0 C11.2492379 -0.04653525 22.49845255 -0.08197622 33.74776745 -0.10362434 C38.97242341 -0.11401931 44.19701305 -0.12809938 49.42163086 -0.15087891 C54.4726202 -0.17276121 59.52354612 -0.18460079 64.57457924 -0.18975449 C66.49248565 -0.19342281 68.41038896 -0.20058534 70.32826805 -0.21146011 C92.58781818 -0.33254766 113.97742855 1.74714883 131.25 17.4375 C142.44954182 29.30432531 147.68237138 45.63155834 147.21875 61.76171875 C145.57718274 86.06277695 135.98901631 108.93573778 118.1875 125.8125 C104.81330102 137.23716841 89.89499033 143.26184596 73 147 C72.27772217 147.17942139 71.55544434 147.35884277 70.8112793 147.54370117 C67.01116755 148.16049743 63.25563217 148.122936 59.41796875 148.09765625 C58.19670036 148.09553383 58.19670036 148.09553383 56.95075989 148.09336853 C54.36296844 148.08779317 51.77526508 148.07524524 49.1875 148.0625 C47.42773563 148.05748181 45.66796989 148.05291946 43.90820312 148.04882812 C39.60543506 148.03783181 35.30273244 148.02058421 31 148 C30.91945374 148.99837639 30.91945374 148.99837639 30.83728027 150.016922 C30.26406959 156.7480626 29.4281029 163.39774601 28.40625 170.07421875 C28.25466431 171.08289505 28.10307861 172.09157135 27.94689941 173.1308136 C27.46759648 176.31683642 26.98402191 179.502191 26.5 182.6875 C26.01675428 185.88363217 25.53442918 189.07989997 25.05310059 192.27632141 C24.75498762 194.25436988 24.45566165 196.23223607 24.15490723 198.20988464 C23.94964417 199.56718437 23.94964417 199.56718437 23.74023438 200.9519043 C23.62111694 201.7359111 23.50199951 202.51991791 23.37927246 203.3276825 C22.87522998 206.87911764 22.44491573 210.44067417 22 214 C4.84 214 -12.32 214 -30 214 C-30 208.95508514 -29.97340441 204.82157124 -29.25317383 199.97167969 C-29.00680679 198.28283661 -29.00680679 198.28283661 -28.75546265 196.55987549 C-28.48398911 194.75906525 -28.48398911 194.75906525 -28.20703125 192.921875 C-27.92194076 190.98169253 -27.63685214 189.04150979 -27.3518486 187.10131454 C-27.05008819 185.05444281 -26.7455502 183.00800233 -26.44015503 180.96166992 C-25.80538639 176.70770388 -25.17827822 172.45263266 -24.55297852 168.19726562 C-24.44940883 167.49251602 -24.34583914 166.78776642 -24.23913097 166.06166077 C-24.03109618 164.64594915 -23.82308792 163.23023363 -23.61510658 161.81451416 C-23.30547165 159.70845858 -22.99511714 157.60251007 -22.68461609 155.49658203 C-21.31089909 146.17186319 -19.98120682 136.84234291 -18.71014404 127.50311279 C-15.86307827 106.58575182 -12.72531396 85.71106956 -9.61326599 64.83181763 C-7.74742867 52.3130429 -5.89350701 39.79250913 -4.03994751 27.27191162 C-3.18329333 21.48590092 -2.32600665 15.69998396 -1.46875 9.9140625 C-1.18163747 7.97607469 -0.89452775 6.03808646 -0.60742188 4.10009766 C-0.40494792 2.73339844 -0.20247396 1.36669922 0 0 Z " fill="#FDFDFD" transform="translate(157,387)"/>
<path d="M0 0 C20.13 0 40.26 0 61 0 C67.92245235 18.45987292 67.92245235 18.45987292 70.4296875 26.20703125 C70.7097464 27.06511887 70.9898053 27.92320648 71.27835083 28.80729675 C71.85630222 30.58164258 72.4324776 32.35656792 73.00683594 34.13208008 C73.88919208 36.85631744 74.78026096 39.57760848 75.671875 42.29882812 C76.23749667 44.03889437 76.80262029 45.7791226 77.3671875 47.51953125 C77.6327243 48.32880569 77.89826111 49.13808014 78.17184448 49.97187805 C79.17285899 53.08399494 80 55.70920016 80 59 C80.66 59 81.32 59 82 59 C82.23203125 58.32453125 82.4640625 57.6490625 82.703125 56.953125 C84.32347857 53.26340421 86.48656671 50.06439623 88.75 46.75 C89.81557606 45.17089124 90.88063255 43.59143183 91.9453125 42.01171875 C92.56438477 41.09567871 93.18345703 40.17963867 93.82128906 39.23583984 C97.94313543 33.11403888 102.0275258 26.96718298 106.11828613 20.82458496 C108.54902176 17.17523214 110.98160266 13.52710993 113.4140625 9.87890625 C114.25733327 8.61401971 115.10059569 7.34912759 115.94384766 6.08422852 C117.29589844 4.05615234 118.64794922 2.02807617 120 0 C122.5942688 -0.36076355 122.5942688 -0.36076355 125.91845703 -0.34057617 C127.15959259 -0.34034958 128.40072815 -0.34012299 129.67947388 -0.33988953 C131.03892372 -0.32456848 132.39836991 -0.30892047 133.7578125 -0.29296875 C135.1450047 -0.28737427 136.53220283 -0.28310347 137.91940308 -0.28010559 C141.57249281 -0.26864497 145.22522534 -0.23916786 148.87817383 -0.20599365 C152.60493131 -0.17531867 156.33174645 -0.16160579 160.05859375 -0.14648438 C167.37255877 -0.11429886 174.68622936 -0.06308839 182 0 C180.10723321 3.92605396 177.73394409 7.42946813 175.25 11 C174.76829346 11.69641602 174.28658691 12.39283203 173.7902832 13.11035156 C166.96464451 22.96322013 160.07252267 32.76994612 153.18847656 42.58203125 C146.86740258 51.59357858 140.55986618 60.61266398 134.33666992 69.69213867 C130.12416348 75.83278049 125.87675055 81.94898201 121.625 88.0625 C120.60720459 89.52683472 120.60720459 89.52683472 119.56884766 91.02075195 C118.5950415 92.42006958 118.5950415 92.42006958 117.6015625 93.84765625 C116.98700195 94.73727051 116.37244141 95.62688477 115.73925781 96.54345703 C114.65451705 98.07555438 113.53857004 99.58657999 112.37792969 101.06201172 C109.65242824 104.32801652 109.65242824 104.32801652 109.26000977 108.37304688 C110.01055601 111.03747366 110.87961622 113.57844294 111.87890625 116.16015625 C112.29398438 117.23499268 112.7090625 118.3098291 113.13671875 119.41723633 C113.60722656 120.62017334 114.07773438 121.82311035 114.5625 123.0625 C114.80677734 123.69062592 115.05105469 124.31875183 115.30273438 124.96591187 C124.52061048 148.6683481 134.06472791 172.24572554 143.53320312 195.84887695 C143.94900635 196.88799225 144.36480957 197.92710754 144.79321289 198.99771118 C145.59302924 200.98752337 146.3994375 202.97469948 147.21264648 204.95907593 C147.58010986 205.85969757 147.94757324 206.76031921 148.32617188 207.68823242 C148.65033081 208.47574387 148.97448975 209.26325531 149.30847168 210.07463074 C150 212 150 212 150 214 C129.87 214 109.74 214 89 214 C80.8125 190.875 80.8125 190.875 78.26098633 183.66748047 C74.52160701 173.10652587 70.77885648 162.54690495 67 152 C66.62939453 152.54599854 66.25878906 153.09199707 65.87695312 153.65454102 C58.57251275 164.40892134 51.2366332 175.14030853 43.8125 185.8125 C43.20921875 186.68011963 42.6059375 187.54773926 41.984375 188.44165039 C40.7263999 190.24698488 39.43946645 192.03239166 38.12841797 193.79956055 C36.41965081 196.36898342 35.19553864 198.66719221 33.92236328 201.44458008 C31.38132306 206.49859798 28.8317872 210.86673356 24 214 C14.79394763 216.62200176 4.82844319 215.68704257 -4.63769531 215.16729736 C-8.17599778 214.99175225 -11.71638977 214.91541738 -15.2578125 214.83007812 C-22.17698116 214.64902505 -29.08788296 214.35989208 -36 214 C-34.89789714 212.25558717 -33.79413898 210.51222008 -32.68969727 208.76928711 C-32.07522232 207.79833603 -31.46074738 206.82738495 -30.82765198 205.82701111 C-28.33299431 201.96827595 -25.66078794 198.26160395 -22.9375 194.5625 C-18.21782075 188.09152787 -13.57667385 181.57287588 -9 175 C-3.9874187 167.80764328 1.0979101 160.67393475 6.24609375 153.578125 C10.36771217 147.89209667 14.42513517 142.16340462 18.46337891 136.41796875 C22.79936091 130.25940935 27.20610484 124.15327235 31.63671875 118.0625 C32.64348852 116.67533863 33.64510965 115.28442042 34.640625 113.88916016 C35.50593836 112.68661081 36.38965456 111.4969407 37.296875 110.32568359 C39.55707956 107.31823015 39.55707956 107.31823015 39.73486328 103.68041992 C38.94179852 100.78770961 37.94088031 98.09681252 36.8046875 95.3203125 C36.34384766 94.18408447 35.88300781 93.04785645 35.40820312 91.87719727 C35.15949463 91.2688504 34.91078613 90.66050354 34.65454102 90.03372192 C33.28676727 86.68470027 31.93586477 83.32890388 30.5859375 79.97265625 C30.29720764 79.25498581 30.00847778 78.53731537 29.71099854 77.79789734 C26.2174981 69.08752154 22.85749203 60.32599531 19.5 51.5625 C19.0300914 50.33623901 19.0300914 50.33623901 18.5506897 49.08520508 C17.293063 45.80301035 16.0354518 42.52080983 14.77845764 39.2383728 C12.65881346 33.70700898 10.52405599 28.18167559 8.37890625 22.66015625 C8.09506073 21.92920242 7.81121521 21.1982486 7.51876831 20.44514465 C6.43710525 17.66037861 5.35518243 14.87572007 4.27001953 12.09231567 C3.54451251 10.23135433 2.82102436 8.36960629 2.09765625 6.5078125 C1.48676147 4.93990967 1.48676147 4.93990967 0.86352539 3.34033203 C0 1 0 1 0 0 Z " fill="#FEFEFE" transform="translate(1183,387)"/>
<path d="M0 0 C42.24 0 84.48 0 128 0 C125.51985663 17.36100356 122.79250099 34.68649389 120 52 C96.24 52 72.48 52 48 52 C47.34 56.62 46.68 61.24 46 66 C45.01 71.28 44.02 76.56 43 82 C63.79 82.33 84.58 82.66 106 83 C104.65938384 93.72492929 103.22572187 104.29837582 101.4375 114.9375 C101.2140029 116.3014012 100.9906951 117.66533344 100.76757812 119.02929688 C100.55423828 120.30740234 100.34089844 121.58550781 100.12109375 122.90234375 C99.9295874 124.05210693 99.73808105 125.20187012 99.54077148 126.38647461 C99 129 99 129 98 130 C96.06693502 130.09396057 94.13041162 130.11743517 92.19506836 130.11352539 C90.95385727 130.11344986 89.71264618 130.11337433 88.43382263 130.11329651 C87.0691626 130.10818911 85.70450298 130.1029731 84.33984375 130.09765625 C82.95121817 130.095792 81.56259193 130.09436813 80.17396545 130.09336853 C76.51278885 130.08954387 72.8516517 130.07971403 69.19049072 130.06866455 C65.45707737 130.05844932 61.72365766 130.05387067 57.99023438 130.04882812 C50.66013823 130.03809171 43.33007464 130.02101591 36 130 C35.85900879 130.78125244 35.71801758 131.56250488 35.57275391 132.36743164 C34.92713813 135.9331237 34.27611855 139.49780886 33.625 143.0625 C33.40328125 144.29162109 33.1815625 145.52074219 32.953125 146.78710938 C32.73398437 147.98271484 32.51484375 149.17832031 32.2890625 150.41015625 C32.09006348 151.50465088 31.89106445 152.59914551 31.68603516 153.72680664 C30.95995826 157.19104614 29.97237864 160.59667475 29 164 C53.75 164 78.5 164 104 164 C102.13606472 180.77541756 98.84061741 197.36209804 96 214 C53.43 214 10.86 214 -33 214 C-31.87484444 203.8736 -31.87484444 203.8736 -31.26318359 199.82714844 C-31.12541504 198.91023727 -30.98764648 197.99332611 -30.84570312 197.04862976 C-30.69810547 196.07867569 -30.55050781 195.10872162 -30.3984375 194.109375 C-30.16278076 192.54743156 -30.16278076 192.54743156 -29.92236328 190.95393372 C-29.40848908 187.55232977 -28.89188206 184.1511481 -28.375 180.75 C-28.01380297 178.36580883 -27.65263802 175.98161281 -27.29150391 173.59741211 C-23.4484079 148.25913636 -19.53615915 122.93123672 -15.51171875 97.62109375 C-15.14878287 95.33717653 -14.78588653 93.05325304 -14.42306519 90.76931763 C-14.18391257 89.26414391 -13.94459543 87.75899632 -13.70510864 86.25387573 C-12.07253562 75.98110868 -10.4955645 65.70075642 -8.953125 55.4140625 C-8.776035 54.23410706 -8.59894501 53.05415161 -8.41648865 51.83843994 C-7.54082195 45.99907196 -6.66904168 40.15915932 -5.80297852 34.31835938 C-5.47940525 32.15233242 -5.15575933 29.98631632 -4.83203125 27.8203125 C-4.69158386 26.86428131 -4.55113647 25.90825012 -4.40643311 24.92324829 C-3.15169055 16.55832784 -1.56260344 8.33388502 0 0 Z " fill="#FDFDFD" transform="translate(708,387)"/>
<path d="M0 0 C0.92087119 0.00092179 1.84174238 0.00184359 2.79051876 0.00279331 C3.84366268 0.00141865 4.8968066 0.00004398 5.98186398 -0.00137234 C7.72973454 0.00402058 7.72973454 0.00402058 9.51291561 0.00952244 C10.73225796 0.00937641 11.9516003 0.00923038 13.20789242 0.00907993 C16.56105596 0.0096589 19.91415859 0.01468815 23.26731133 0.02165389 C26.76803646 0.027888 30.26876233 0.02849127 33.76949215 0.0296793 C40.4028774 0.03279245 47.03624625 0.04100561 53.66962427 0.05102879 C61.21968292 0.06219044 68.76974233 0.06770051 76.31980717 0.07272422 C91.85480791 0.08318824 107.38979227 0.10078736 122.92478085 0.12304783 C122.77312969 2.02053312 122.61960538 3.91786876 122.46530819 5.81514072 C122.38001858 6.87173547 122.29472897 7.92833021 122.20685482 9.01694298 C121.81758457 13.30345755 121.21307755 17.53965309 120.54978085 21.79101658 C120.4203912 22.63731129 120.29100155 23.483606 120.157691 24.355546 C119.88742004 26.11600551 119.6151153 27.87615397 119.34079647 29.63598728 C118.91983571 32.34234004 118.50788792 35.04996716 118.09665585 37.75781345 C117.83156193 39.47729646 117.56595634 41.19670067 117.29978085 42.91601658 C117.17683651 43.72628803 117.05389217 44.53655949 116.92722225 45.37138462 C116.03978179 51.00804689 116.03978179 51.00804689 114.92478085 52.12304783 C112.71610254 52.21737768 110.50436563 52.24047214 108.29367733 52.23657322 C107.60102779 52.23671925 106.90837826 52.23686527 106.19473934 52.23701572 C103.89508639 52.23631657 101.59551348 52.22852411 99.2958746 52.22070408 C97.70546672 52.21883991 96.11505827 52.217416 94.52464962 52.21641636 C90.33082155 52.21259111 86.1370279 52.20276078 81.94321346 52.19171238 C77.6668917 52.1814984 73.3905644 52.17691877 69.11423397 52.17187595 C60.71773377 52.16113851 52.32126158 52.14406202 43.92478085 52.12304783 C43.81521053 53.02023533 43.70564022 53.91742283 43.5927496 54.84179783 C43.35491756 56.71351658 43.35491756 56.71351658 43.11228085 58.62304783 C42.88605038 60.43289158 42.88605038 60.43289158 42.6552496 62.27929783 C41.60271157 69.25869437 40.2255474 76.18562621 38.92478085 83.12304783 C60.37478085 83.12304783 81.82478085 83.12304783 103.92478085 83.12304783 C100.42026134 108.82285753 100.42026134 108.82285753 98.79978085 118.43554783 C98.63091366 119.47259861 98.46204647 120.50964939 98.2880621 121.57812595 C98.12435116 122.55845798 97.96064022 123.53879002 97.79196835 124.54882908 C97.57709774 125.83914036 97.57709774 125.83914036 97.35788631 127.15551853 C96.92478085 129.12304783 96.92478085 129.12304783 95.92478085 130.12304783 C93.93046355 130.21709925 91.93278542 130.24048032 89.93625546 130.23657322 C88.65500286 130.23649769 87.37375027 130.23642216 86.05367184 130.23634434 C84.64482237 130.23123692 83.23597329 130.22602092 81.8271246 130.22070408 C80.3936585 130.21883985 78.96019177 130.21741597 77.52672482 130.21641636 C73.74718128 130.21259155 69.96767595 130.20276159 66.18814754 130.19171238 C62.33408786 130.18149746 58.48002203 130.17691857 54.62595272 130.17187595 C47.05887798 130.16113928 39.49183476 130.14406332 31.92478085 130.12304783 C31.8268121 130.73406345 31.72884335 131.34507908 31.62790585 131.97461033 C29.87203447 142.7217541 27.87410068 153.40178877 25.92478085 164.12304783 C50.67478085 164.12304783 75.42478085 164.12304783 100.92478085 164.12304783 C98.41270731 180.87020473 95.24591236 197.51739026 91.92478085 214.12304783 C50.01478085 214.12304783 8.10478085 214.12304783 -35.07521915 214.12304783 C-35.07521915 205.12475866 -35.07521915 205.12475866 -34.45534611 201.40722752 C-34.31659061 200.55436665 -34.17783512 199.70150578 -34.03487492 198.82280064 C-33.87932133 197.90610096 -33.72376774 196.98940128 -33.5635004 196.04492283 C-33.39932621 195.04334644 -33.23515202 194.04177006 -33.06600285 193.00984287 C-32.70422038 190.80448962 -32.3397498 188.5995761 -31.97295475 186.395051 C-31.04633103 180.81854183 -30.13882832 175.23893726 -29.2322607 169.65913677 C-29.01112593 168.29812701 -28.78979526 166.93714906 -28.56827831 165.57620144 C-25.63180205 147.52674834 -22.84261614 129.45452959 -20.05389881 111.38176441 C-19.63790182 108.68673121 -19.22140898 105.99177511 -18.80474186 103.29684544 C-15.9918305 85.1029816 -13.19069266 66.90738442 -10.41854 48.70726299 C-10.06111407 46.36178014 -9.70317482 44.0163763 -9.3450098 41.6710062 C-9.23005507 40.91824437 -9.11510035 40.16548254 -8.99666214 39.38990974 C-8.769348 37.90153411 -8.54200333 36.41316314 -8.31462669 34.92479706 C-7.66149644 30.64707847 -7.01229993 26.36878629 -6.36613274 22.09001064 C-5.88164503 18.88830955 -5.39205134 15.6873884 -4.90334415 12.48632908 C-4.731068 11.33654575 -4.55879185 10.18676243 -4.3812952 9.00213718 C-4.22260456 7.96865147 -4.06391392 6.93516575 -3.90041447 5.87036228 C-3.76419682 4.97122608 -3.62797916 4.07208988 -3.48763371 3.14570713 C-2.93405743 0.4307297 -2.78785243 0.16530263 0 0 Z " fill="#FDFDFD" transform="translate(1045.075219154358,386.8769521713257)"/>
<path d="M0 0 C17.82 0 35.64 0 54 0 C54.99 4.62 55.98 9.24 57 14 C62.63512754 25.40130456 70.04401487 31.6751145 82 36 C93.2709332 38.79139934 105.31427103 37.05830751 115.484375 31.60546875 C127.67486042 23.8255161 133.06886179 14.04850407 139 1 C156.49 1 173.98 1 192 1 C189.21833428 31.59832295 173.17727462 58.35224717 150.125 78.25 C127.4147276 96.57707215 102.91515436 103.92700436 74 102 C52.30941289 99.58512618 33.31852289 87.12343447 19.24609375 70.87890625 C2.09481518 48.89544137 0 28.00065359 0 0 Z " fill="#FEFEFD" transform="translate(306,500)"/>
<path d="M0 0 C19.71586469 17.24766443 29.15626842 38.57017393 30.90234375 64.515625 C31.3457462 71.31632009 31.3457462 71.31632009 30.15234375 73.703125 C22.64095781 73.7284149 15.12958278 73.74596641 7.61816406 73.75805664 C5.06119374 73.76309517 2.50422632 73.76992607 -0.05273438 73.77856445 C-3.72136142 73.79065102 -7.38995048 73.79635801 -11.05859375 73.80078125 C-12.20758148 73.80594254 -13.35656921 73.81110382 -14.54037476 73.81642151 C-15.60132355 73.81649704 -16.66227234 73.81657257 -17.75537109 73.81665039 C-18.69246918 73.818871 -19.62956726 73.82109161 -20.59506226 73.82337952 C-22.84765625 73.703125 -22.84765625 73.703125 -24.84765625 72.703125 C-25.58336436 70.90965181 -26.26096692 69.09219712 -26.91015625 67.265625 C-30.81499602 57.67479047 -36.89129639 50.75433443 -46.453125 46.59765625 C-58.7060912 42.02028388 -70.66364583 42.7289069 -82.6640625 47.921875 C-91.73507208 52.46368786 -98.2161778 58.39233568 -102.83227539 67.43676758 C-105.94639127 72.38182053 -105.94639127 72.38182053 -109.552948 73.66757202 C-112.86835703 73.9770102 -116.01800765 73.94224076 -119.34375 73.77734375 C-121.12677269 73.75399712 -121.12677269 73.75399712 -122.94581604 73.73017883 C-126.72874603 73.66877687 -130.50440789 73.53083086 -134.28515625 73.390625 C-136.85471391 73.33543009 -139.42438436 73.28524316 -141.99414062 73.24023438 C-148.28111001 73.11919818 -154.56386411 72.93534742 -160.84765625 72.703125 C-160.70869466 71.29132974 -160.56451171 69.88004795 -160.41821289 68.46899414 C-160.33849747 67.6830336 -160.25878204 66.89707306 -160.176651 66.08729553 C-159.6525226 62.28902371 -158.52561399 58.75849197 -157.28515625 55.140625 C-157.0212207 54.36686523 -156.75728516 53.59310547 -156.48535156 52.79589844 C-151.6407053 39.06846723 -144.75078697 27.17729182 -135.84765625 15.703125 C-135.25210937 14.93355469 -134.6565625 14.16398437 -134.04296875 13.37109375 C-119.48252102 -4.289545 -95.8567471 -17.48138995 -73.06396484 -20.10205078 C-46.19226604 -22.46420276 -21.21414034 -17.11099386 0 0 Z " fill="#F84032" transform="translate(471.84765625,404.296875)"/>
<path d="M0 0 C3.45825936 -0.05898369 6.9163862 -0.09392131 10.375 -0.125 C11.34050781 -0.14175781 12.30601562 -0.15851563 13.30078125 -0.17578125 C24.61191513 -0.2516949 35.37278897 1.33611387 44.23046875 8.90625 C54.51176824 19.55404985 56.39969119 31.94303255 56.21484375 46.02734375 C55.59150383 66.34203059 46.21457352 83.75111113 31.71875 97.58984375 C22.27951777 105.95766887 10.71830498 111.17618592 -2.08203125 111.09765625 C-2.9222583 111.09515869 -3.76248535 111.09266113 -4.62817383 111.09008789 C-5.67900146 111.08098389 -6.7298291 111.07187988 -7.8125 111.0625 C-9.62979926 111.05100305 -11.44710091 111.03987785 -13.2644043 111.02905273 C-14.8429362 111.01936849 -16.4214681 111.00968424 -18 111 C-15.93896137 95.42321155 -13.64181943 79.89440284 -11.1875 64.375 C-11.01491669 63.27979034 -10.84233337 62.18458069 -10.66452026 61.05618286 C-8.34533505 46.3421031 -5.99133474 31.63389487 -3.5625 16.9375 C-3.43716888 16.17338806 -3.31183777 15.40927612 -3.18270874 14.62200928 C-2.83495864 12.50651747 -2.48277906 10.39181882 -2.12890625 8.27734375 C-1.93369385 7.10421631 -1.73848145 5.93108887 -1.53735352 4.72241211 C-1 2 -1 2 0 0 Z " fill="#020B11" transform="translate(901,439)"/>
<path d="M0 0 C4.78487653 4.44506764 8.55408583 9.51532806 12.4375 14.75 C13.08009766 15.6059375 13.72269531 16.461875 14.38476562 17.34375 C18.44156841 22.7802776 22.30032557 28.3145661 26 34 C13.5499052 42.0498534 0.83646336 49.57182078 -12.0625 56.875 C-13.05024414 57.43461426 -14.03798828 57.99422852 -15.05566406 58.57080078 C-15.99764648 59.1017334 -16.93962891 59.63266602 -17.91015625 60.1796875 C-18.74683838 60.65132324 -19.58352051 61.12295898 -20.44555664 61.60888672 C-21.28852295 62.0679541 -22.13148926 62.52702148 -23 63 C-24.3468689 63.81392212 -24.3468689 63.81392212 -25.72094727 64.64428711 C-30.07456637 66.44427571 -33.88768239 66.47727681 -38.5546875 66.51171875 C-39.45623566 66.52966995 -40.35778381 66.54762115 -41.28665161 66.56611633 C-44.14938768 66.6200415 -47.01195871 66.65405775 -49.875 66.6875 C-51.82293954 66.7206888 -53.77085736 66.7551799 -55.71875 66.79101562 C-60.47904726 66.87575772 -65.23929708 66.94265359 -70 67 C-68.15234806 62.97247358 -65.47256361 60.28672525 -62.3125 57.25 C-58.89660896 53.90688427 -55.53346747 50.5847007 -52.4375 46.9375 C-46.2788724 39.72739939 -39.41822739 33.07035016 -32.203125 26.92578125 C-29.92485044 24.93431076 -27.72282387 22.87088132 -25.52050781 20.79614258 C-17.52078042 13.27948477 -9.14704526 6.09803017 0 0 Z " fill="#FDFDFD" transform="translate(803,299)"/>
<path d="M0 0 C4.40374254 3.4533622 7.52610026 7.30223546 9.015625 12.74609375 C10.2419894 23.75550145 8.15823854 32.63290811 1.82421875 41.66796875 C-2.9865534 47.19568103 -9.88195285 51.27023282 -17.18359375 52.1171875 C-26.05841723 52.28613711 -32.72706711 51.25417177 -39.6015625 45.359375 C-43.94069218 40.67362845 -46.07999081 34.79815896 -46.421875 28.49609375 C-46.0628113 19.45705547 -42.57974226 10.04614606 -35.984375 3.74609375 C-25.03448373 -4.36225549 -12.09078558 -7.64004364 0 0 Z " fill="#FCFCFC" transform="translate(421.984375,468.25390625)"/>
<path d="M0 0 C4.26835703 -0.07474224 8.53635674 -0.12887823 12.80517578 -0.16479492 C14.25413661 -0.17978417 15.70305283 -0.20018271 17.15185547 -0.22631836 C34.95511474 -0.53919438 34.95511474 -0.53919438 40.53881836 4.34643555 C43.30766219 7.37239667 44.70982974 9.93761632 45 14 C45.1546875 15.8253125 45.1546875 15.8253125 45.3125 17.6875 C45.1611357 25.72494454 41.34190082 32.56773896 35.92578125 38.30859375 C29.34528377 44.08821932 22.06602761 45.13840966 13.5078125 45.09765625 C12.30898437 45.09443359 11.11015625 45.09121094 9.875 45.08789062 C8.01875 45.07532227 8.01875 45.07532227 6.125 45.0625 C4.86429688 45.05798828 3.60359375 45.05347656 2.3046875 45.04882812 C-0.79692386 45.0370796 -3.89843725 45.02065167 -7 45 C-6.823479 43.95658447 -6.64695801 42.91316895 -6.46508789 41.83813477 C-5.80467402 37.93035651 -5.14758791 34.02202453 -4.49145508 30.11352539 C-4.20816916 28.42880455 -3.92400649 26.74423087 -3.63891602 25.05981445 C-3.2269651 22.62490315 -2.81827365 20.18946267 -2.41015625 17.75390625 C-2.28407486 17.01290176 -2.15799347 16.27189728 -2.02809143 15.50843811 C-1.1684576 10.35225771 -0.54174615 5.19941434 0 0 Z " fill="#030B11" transform="translate(202,439)"/>
<path d="M0 0 C38.115 0.495 38.115 0.495 77 1 C76.67 2.98 76.34 4.96 76 7 C75.505 5.02 75.505 5.02 75 3 C50.25 3 25.5 3 0 3 C0 2.01 0 1.02 0 0 Z " fill="#000103" transform="translate(1071,548)"/>
<path d="M0 0 C0.33 0.99 0.66 1.98 1 3 C24.1 3.33 47.2 3.66 71 4 C71.495 4.99 71.495 4.99 72 6 C47.58 6 23.16 6 -2 6 C-1.34 4.02 -0.68 2.04 0 0 Z " fill="#010204" transform="translate(739,545)"/>
<path d="M0 0 C0.625 1.75 0.625 1.75 1 4 C0.34 5.32 -0.32 6.64 -1 8 C-22.45 8 -43.9 8 -66 8 C-66 7.34 -66 6.68 -66 6 C-44.88 5.67 -23.76 5.34 -2 5 C-1.34 3.35 -0.68 1.7 0 0 Z " fill="#000103" transform="translate(1143,511)"/>
<path d="M0 0 C1 2 1 2 0 6 C-21.12 6 -42.24 6 -64 6 C-64 5.34 -64 4.68 -64 4 C-63.2277005 3.99413376 -62.455401 3.98826752 -61.65969849 3.98222351 C-54.39032614 3.92437944 -47.12129982 3.85235148 -39.85223579 3.76428509 C-36.11489125 3.71950948 -32.37765753 3.68026977 -28.64013672 3.65356445 C-25.0348751 3.6276024 -21.43003831 3.58725188 -17.82503891 3.53681374 C-16.4479487 3.52009662 -15.07078493 3.50861257 -13.69360733 3.50238609 C-11.76843965 3.49279841 -9.8434038 3.46307292 -7.91845703 3.43237305 C-6.82147491 3.42126999 -5.7244928 3.41016693 -4.5942688 3.39872742 C-3.7381601 3.26714737 -2.88205139 3.13556732 -2 3 C-1.34 2.01 -0.68 1.02 0 0 Z " fill="#000103" transform="translate(808,513)"/>
<path d="M0 0 C0.33 0.66 0.66 1.32 1 2 C20.14 2.33 39.28 2.66 59 3 C59 3.66 59 4.32 59 5 C39.2 5 19.4 5 -1 5 C-1.33 4.34 -1.66 3.68 -2 3 C-1.34 2.01 -0.68 1.02 0 0 Z " fill="#000103" transform="translate(1147,598)"/>
<path d="M0 0 C2.97 0.33 5.94 0.66 9 1 C-1.36405115 7.90936743 -15.83202768 9.41639449 -28 9 C-28 8.34 -28 7.68 -28 7 C-19.585 6.505 -19.585 6.505 -11 6 C-10.67 5.01 -10.34 4.02 -10 3 C-9.01 3 -8.02 3 -7 3 C-4.66435067 2.68330179 -2.3306218 2.35179197 0 2 C0 1.34 0 0.68 0 0 Z " fill="#0D1114" transform="translate(256,560)"/>
<path d="M0 0 C0.33 0.66 0.66 1.32 1 2 C-5.20972429 10.76361925 -11.51031134 19.44113524 -18 28 C-18.33 27.01 -18.66 26.02 -19 25 C-18.01538086 23.22583008 -18.01538086 23.22583008 -16.46484375 21.26953125 C-15.62083008 20.18768555 -15.62083008 20.18768555 -14.75976562 19.08398438 C-14.15841797 18.33439453 -13.55707031 17.58480469 -12.9375 16.8125 C-11.7796042 15.34011399 -10.62205071 13.86745871 -9.46484375 12.39453125 C-8.89233887 11.67217285 -8.31983398 10.94981445 -7.72998047 10.20556641 C-5.09552271 6.84687442 -2.54345076 3.42787663 0 0 Z " fill="#0E1013" transform="translate(623,400)"/>
<path d="M0 0 C0.66 0.33 1.32 0.66 2 1 C1.26394531 1.66386719 0.52789062 2.32773437 -0.23046875 3.01171875 C-1.20628906 3.89472656 -2.18210937 4.77773438 -3.1875 5.6875 C-4.63189453 6.99267578 -4.63189453 6.99267578 -6.10546875 8.32421875 C-10.23114182 12.13810006 -14.13827156 16.061922 -17.8125 20.3125 C-18.41707031 21.00988281 -19.02164062 21.70726562 -19.64453125 22.42578125 C-20.31548828 23.20501953 -20.31548828 23.20501953 -21 24 C-21 19.95983547 -19.53130788 19.0433941 -16.8125 16.125 C-15.98621094 15.23554688 -15.15992188 14.34609375 -14.30859375 13.4296875 C-9.75849401 8.64091925 -5.05743957 4.24125335 0 0 Z " fill="#FB4E3A" transform="translate(354,403)"/>
<path d="M0 0 C0.78568359 -0.00257813 1.57136719 -0.00515625 2.38085938 -0.0078125 C3.59805664 0.00378906 3.59805664 0.00378906 4.83984375 0.015625 C5.65517578 0.00789063 6.47050781 0.00015625 7.31054688 -0.0078125 C8.09494141 -0.00523437 8.87933594 -0.00265625 9.6875 0 C10.40043213 0.00225586 11.11336426 0.00451172 11.84790039 0.00683594 C13.77734375 0.265625 13.77734375 0.265625 16.77734375 2.265625 C8.28935186 3.07105489 0.24295473 3.38861421 -8.22265625 2.265625 C-5.35691154 0.64233437 -3.28759822 0.01038618 0 0 Z " fill="#1D1416" transform="translate(454.22265625,476.734375)"/>
<path d="M0 0 C0.495 0.99 0.495 0.99 1 2 C-0.98567708 2.22786458 -2.97135417 2.45572917 -4.95703125 2.68359375 C-7.19396393 2.97170735 -7.19396393 2.97170735 -10 4 C-10 3.34 -10 2.68 -10 2 C-20.23 2 -30.46 2 -41 2 C-41 1.67 -41 1.34 -41 1 C-27.47 0.67 -13.94 0.34 0 0 Z " fill="#0B1116" transform="translate(365,476)"/>
<path d="M0 0 C6.11090483 -0.09945415 11.97403427 -0.0712828 18 1 C18 1.33 18 1.66 18 2 C16.35 2 14.7 2 13 2 C12.67 2.99 12.34 3.98 12 5 C9.625 5.125 9.625 5.125 7 5 C6.34 4.34 5.68 3.68 5 3 C2.42938689 2.35232207 2.42938689 2.35232207 0 2 C0 1.34 0 0.68 0 0 Z " fill="#0E1317" transform="translate(419,363)"/>
<path d="M0 0 C0.33 0 0.66 0 1 0 C0.34938113 8.38955907 -0.74898749 16.68015955 -2 25 C-4.49055871 21.23564408 -4.03090984 18.13382623 -3.625 13.75 C-3.51414062 12.48671875 -3.40328125 11.2234375 -3.2890625 9.921875 C-3.19367188 8.95765625 -3.09828125 7.9934375 -3 7 C-2.34 7 -1.68 7 -1 7 C-1.020625 6.030625 -1.04125 5.06125 -1.0625 4.0625 C-1 1 -1 1 0 0 Z " fill="#0E1013" transform="translate(1030,461)"/>
<path d="M0 0 C0.66 0 1.32 0 2 0 C3.00419637 2.4566947 4.00350501 4.91518353 5 7.375 C5.42925781 8.42300781 5.42925781 8.42300781 5.8671875 9.4921875 C8 14.7734375 8 14.7734375 8 17 C6.68 16.67 5.36 16.34 4 16 C3.896875 14.96875 3.79375 13.9375 3.6875 12.875 C3.00588006 9.03314217 1.79093286 6.42613244 0 3 C0 2.01 0 1.02 0 0 Z " fill="#0E1215" transform="translate(1349,576)"/>
<path d="M0 0 C0.33 0.66 0.66 1.32 1 2 C-2.96 7.61 -6.92 13.22 -11 19 C-11.66 18.34 -12.32 17.68 -13 17 C-11.58435393 15.10339726 -10.16751545 13.20770483 -8.75 11.3125 C-7.56664062 9.72888672 -7.56664062 9.72888672 -6.359375 8.11328125 C-4.28173517 5.37175982 -2.16319353 2.6742232 0 0 Z " fill="#0F1013" transform="translate(1198,526)"/>
<path d="M0 0 C3.45547093 1.72773547 4.62448238 5.51535535 6 9 C6.25 12 6.25 12 6 14 C3.47650757 10.87567603 1.72743854 7.61939504 0 4 C-0.33 5.65 -0.66 7.3 -1 9 C-1.33 9 -1.66 9 -2 9 C-2 6.36 -2 3.72 -2 1 C-1.34 0.67 -0.68 0.34 0 0 Z " fill="#1A1D20" transform="translate(582,603)"/>
<path d="M0 0 C1.32 0.33 2.64 0.66 4 1 C3.44010697 4.99012371 2.24330232 7.5255052 -0.0625 10.8125 C-0.88427734 11.99779297 -0.88427734 11.99779297 -1.72265625 13.20703125 C-2.14417969 13.79871094 -2.56570313 14.39039063 -3 15 C-3.625 13.1875 -3.625 13.1875 -4 11 C-3.34 10.01 -2.68 9.02 -2 8 C-1.34 8 -0.68 8 0 8 C-0.2784375 6.7934375 -0.2784375 6.7934375 -0.5625 5.5625 C-0.706875 4.716875 -0.85125 3.87125 -1 3 C-0.67 2.67 -0.34 2.34 0 2 C0 1.34 0 0.68 0 0 Z " fill="#0D1115" transform="translate(1377,412)"/>
<path d="M0 0 C1.79378179 2.69067269 2.97313958 5.08578257 4.1875 8.0625 C4.55230469 8.94035156 4.91710938 9.81820312 5.29296875 10.72265625 C6 13 6 13 5 15 C4.5875 14.278125 4.175 13.55625 3.75 12.8125 C2.0525686 9.94058666 2.0525686 9.94058666 -0.1875 7.375 C-2 5 -2 5 -2 2 C-1.34 2 -0.68 2 0 2 C0 1.34 0 0.68 0 0 Z " fill="#101418" transform="translate(1338,545)"/>
<path d="M0 0 C0.33 0 0.66 0 1 0 C1.58237575 4.90469574 -0.22478003 7.3664841 -3 11.3125 C-3.7425 12.38113281 -4.485 13.44976562 -5.25 14.55078125 C-6.11625 15.76314453 -6.11625 15.76314453 -7 17 C-7.7109375 15.31640625 -7.7109375 15.31640625 -8 13 C-6.6015625 10.52734375 -6.6015625 10.52734375 -4.625 7.9375 C-1.82378489 4.23292095 -1.82378489 4.23292095 0 0 Z " fill="#0F1114" transform="translate(1391,395)"/>
<path d="M0 0 C0.33 0 0.66 0 1 0 C1.05420701 2.56278699 1.09377007 5.12441483 1.125 7.6875 C1.15013672 8.7693457 1.15013672 8.7693457 1.17578125 9.87304688 C1.21391569 14.04876781 0.8789919 17.2494138 -1 21 C-1.33 21 -1.66 21 -2 21 C-1.03644647 6.21867882 -1.03644647 6.21867882 0 0 Z " fill="#14181B" transform="translate(138,388)"/>
<path d="M0 0 C0.99 0 1.98 0 3 0 C5.72813864 5.34260484 6.89861785 9.97809337 6 16 C5.34 16.99 4.68 17.98 4 19 C4.061875 18.05125 4.12375 17.1025 4.1875 16.125 C4.21015056 10.58693818 2.46765332 4.93530664 0 0 Z " fill="#14171B" transform="translate(1389,376)"/>
<path d="M0 0 C1.3357457 3.77371512 0.72408671 6.85831347 0.0625 10.75 C-0.13214844 11.92046875 -0.32679688 13.0909375 -0.52734375 14.296875 C-0.68332031 15.18890625 -0.83929687 16.0809375 -1 17 C-1.66 17 -2.32 17 -3 17 C-2.88660796 14.35319096 -2.75987127 11.70822482 -2.625 9.0625 C-2.5940625 8.30775391 -2.563125 7.55300781 -2.53125 6.77539062 C-2.4273685 4.84492605 -2.22104386 2.92057919 -2 1 C-1.34 0.67 -0.68 0.34 0 0 Z " fill="#131619" transform="translate(1014,565)"/>
<path d="M0 0 C2.87255066 2.42195448 3.70838919 4.59742703 4.6875 8.1875 C4.93886719 9.08855469 5.19023438 9.98960937 5.44921875 10.91796875 C5.63097656 11.60503906 5.81273437 12.29210937 6 13 C4.68 12.67 3.36 12.34 2 12 C1.855625 10.948125 1.71125 9.89625 1.5625 8.8125 C1.12473034 5.84539451 0.62195134 2.93205634 0 0 Z " fill="#0E1216" transform="translate(1327,519)"/>
<path d="M0 0 C0.33 0.66 0.66 1.32 1 2 C-0.61712428 4.33916131 -2.24305362 6.67121701 -3.875 9 C-4.33519531 9.66773438 -4.79539062 10.33546875 -5.26953125 11.0234375 C-6.46305946 12.71859351 -7.72690339 14.3637578 -9 16 C-9.66 16 -10.32 16 -11 16 C-9.38677027 12.44413762 -7.24743046 9.45249622 -4.9375 6.3125 C-4.22464844 5.33925781 -3.51179687 4.36601562 -2.77734375 3.36328125 C-1 1 -1 1 0 0 Z " fill="#0F1114" transform="translate(595,438)"/>
<path d="M0 0 C2.11608114 3.43863185 2.39249607 5.99654004 2 10 C1.15097431 12.43910849 0.12120459 14.66415709 -1 17 C-1.33 17 -1.66 17 -2 17 C-1.4618629 11.30948637 -0.8599867 5.65134116 0 0 Z " fill="#141619" transform="translate(199,458)"/>
<path d="M0 0 C-0.33 3.63 -0.66 7.26 -1 11 C-1.99 11.33 -2.98 11.66 -4 12 C-4.33 10.02 -4.66 8.04 -5 6 C-4.34 6 -3.68 6 -3 6 C-3.33 4.68 -3.66 3.36 -4 2 C-1 0 -1 0 0 0 Z " fill="#0D1115" transform="translate(518,455)"/>
<path d="M0 0 C0.66 0.33 1.32 0.66 2 1 C-0.97 4.3 -3.94 7.6 -7 11 C-7.66 10.67 -8.32 10.34 -9 10 C-7.61811547 6.78956118 -6.07578097 4.95063635 -3.375 2.75 C-2.74335938 2.22921875 -2.11171875 1.7084375 -1.4609375 1.171875 C-0.73777344 0.59179688 -0.73777344 0.59179688 0 0 Z " fill="#101519" transform="translate(341,387)"/>
<path d="M0 0 C3.82946843 1.45255699 5.12050295 3.42895561 7 7 C3.61976483 7 1.16531063 6.12544378 -2 5 C-1 2 -1 2 0 0 Z " fill="#0D1216" transform="translate(834,306)"/>
<path d="M0 0 C0.598125 0.185625 1.19625 0.37125 1.8125 0.5625 C4.16408762 1.22093687 4.16408762 1.22093687 7 0 C5.8141763 3.37503669 4.72426311 5.64722731 2 8 C2 7.01 2 6.02 2 5 C1.34 5 0.68 5 0 5 C0 3.35 0 1.7 0 0 Z " fill="#0B1116" transform="translate(1328,483)"/>
<path d="M0 0 C2 1 2 1 2.8515625 3.14453125 C3.10679687 4.02496094 3.36203125 4.90539062 3.625 5.8125 C4.01558594 7.12154297 4.01558594 7.12154297 4.4140625 8.45703125 C5 11 5 11 5 15 C4.34 15 3.68 15 3 15 C3 13.35 3 11.7 3 10 C2.34 10 1.68 10 1 10 C0.67 6.7 0.34 3.4 0 0 Z " fill="#141518" transform="translate(952,460)"/>
<path d="M0 0 C0.66 1.32 1.32 2.64 2 4 C2.99 4 3.98 4 5 4 C5.66 3.01 6.32 2.02 7 1 C7 2.98 7 4.96 7 7 C6.34 7 5.68 7 5 7 C4.67 7.99 4.34 8.98 4 10 C0 3.375 0 3.375 0 0 Z " fill="#0B1115" transform="translate(993,617)"/>
<path d="M0 0 C2 2 2 2 2 6 C1.34 6 0.68 6 0 6 C0.226875 6.556875 0.45375 7.11375 0.6875 7.6875 C1.12449065 10.92123084 -0.18801373 12.39073978 -2 15 C-3.53760842 11.92478317 -2.36599236 9.65324882 -1.5625 6.375 C-1.27503906 5.18648437 -0.98757813 3.99796875 -0.69140625 2.7734375 C-0.46324219 1.85820313 -0.23507812 0.94296875 0 0 Z " fill="#0F1215" transform="translate(1140,584)"/>
<path d="M0 0 C1.41750563 0.11509661 2.83401169 0.24253658 4.25 0.375 C5.03890625 0.44460938 5.8278125 0.51421875 6.640625 0.5859375 C9.085877 1.01507113 10.84836903 1.78600638 13 3 C11.40119187 3.41694996 9.79558739 3.80790856 8.1875 4.1875 C7.29417969 4.40792969 6.40085937 4.62835938 5.48046875 4.85546875 C3 5 3 5 1.17578125 3.67578125 C0 2 0 2 0 0 Z " fill="#15191D" transform="translate(946,368)"/>
<path d="M0 0 C4.85963179 0.60745397 8.7405518 2.72758967 13 5 C12.67 5.66 12.34 6.32 12 7 C1.49090909 2.98181818 1.49090909 2.98181818 0 0 Z " fill="#0D1013" transform="translate(279,375)"/>
<path d="M0 0 C3.55780196 0.60990891 6.6828589 1.5783681 10 3 C6.25 4.125 6.25 4.125 4 3 C4 3.66 4 4.32 4 5 C2.68 5.33 1.36 5.66 0 6 C0 4.02 0 2.04 0 0 Z " fill="#0D1317" transform="translate(453,369)"/>
<path d="M0 0 C0.66 0.33 1.32 0.66 2 1 C2 1.99 2 2.98 2 4 C1.34 4.66 0.68 5.32 0 6 C-0.66 5.67 -1.32 5.34 -2 5 C-3.32 5.99 -4.64 6.98 -6 8 C-6.66 7.67 -7.32 7.34 -8 7 C-5.36 4.69 -2.72 2.38 0 0 Z " fill="#111619" transform="translate(749,322)"/>
<path d="M0 0 C2.97 0.33 5.94 0.66 9 1 C5.32740617 3.44839588 2.45351799 5 -2 5 C-2 4.34 -2 3.68 -2 3 C-1.34 2.67 -0.68 2.34 0 2 C0 1.34 0 0.68 0 0 Z " fill="#12161A" transform="translate(256,560)"/>
<path d="M0 0 C0.99 0.99 1.98 1.98 3 3 C1.68 5.31 0.36 7.62 -1 10 C-1.91058531 6.92677456 -2.08886184 4.19902639 -2 1 C-1.34 0.67 -0.68 0.34 0 0 Z " fill="#0E1317" transform="translate(1346,460)"/>
<path d="M0 0 C3.4599577 2.67360368 4.06972239 5.84953067 5 10 C5.125 12.9375 5.125 12.9375 5 15 C3.25050228 12.37575342 2.34610019 10.44272784 1.375 7.5 C0.98441406 6.33984375 0.98441406 6.33984375 0.5859375 5.15625 C0 3 0 3 0 0 Z " fill="#100F12" transform="translate(1250,403)"/>
<path d="M0 0 C0 0.66 0 1.32 0 2 C-7.42857143 5.28571429 -7.42857143 5.28571429 -11 6 C-10 3 -10 3 -7.1875 1.3125 C-4 0 -4 0 0 0 Z " fill="#101317" transform="translate(1041,367)"/>
<path d="M0 0 C0.66 0 1.32 0 2 0 C5 6.625 5 6.625 5 10 C4.34 10 3.68 10 3 10 C0 3.375 0 3.375 0 0 Z " fill="#0E1215" transform="translate(1343,561)"/>
<path d="M0 0 C2.57692308 5.15384615 2.57692308 5.15384615 2 9 C0.68 10.32 -0.64 11.64 -2 13 C-1.34 8.71 -0.68 4.42 0 0 Z " fill="#131518" transform="translate(740,533)"/>
<path d="M0 0 C1.32 0.66 2.64 1.32 4 2 C3.49396008 4.16874252 3.00016187 5.99967627 2 8 C1.34 8 0.68 8 0 8 C-0.38063221 5.6739143 -0.71269945 3.33944736 -1 1 C-0.67 0.67 -0.34 0.34 0 0 Z " fill="#0F1215" transform="translate(1263,438)"/>
<path d="M0 0 C5.01113235 1.4317521 6.94469549 3.98445693 10 8 C9.01 8.495 9.01 8.495 8 9 C6.5 7.625 6.5 7.625 5 6 C5 5.34 5 4.68 5 4 C4.360625 3.896875 3.72125 3.79375 3.0625 3.6875 C2.381875 3.460625 1.70125 3.23375 1 3 C0.67 2.01 0.34 1.02 0 0 Z " fill="#111417" transform="translate(1254,368)"/>
<path d="M0 0 C0.66 0 1.32 0 2 0 C0.55218207 3.44428265 -1.27694609 5.36130962 -4.125 7.75 C-5.21167969 8.67039062 -5.21167969 8.67039062 -6.3203125 9.609375 C-6.87460937 10.06828125 -7.42890625 10.5271875 -8 11 C-8 8 -8 8 -6.7578125 6.39453125 C-6.21898437 5.87246094 -5.68015625 5.35039062 -5.125 4.8125 C-4.59132813 4.28269531 -4.05765625 3.75289063 -3.5078125 3.20703125 C-2 2 -2 2 0 2 C0 1.34 0 0.68 0 0 Z " fill="#111114" transform="translate(768,326)"/>
<path d="M0 0 C-0.33 3.96 -0.66 7.92 -1 12 C-3 10 -3 10 -3.1953125 7.8359375 C-3.17210937 7.02382813 -3.14890625 6.21171875 -3.125 5.375 C-3.10695313 4.55773437 -3.08890625 3.74046875 -3.0703125 2.8984375 C-3.04710937 2.27195312 -3.02390625 1.64546875 -3 1 C-1 0 -1 0 0 0 Z " fill="#111417" transform="translate(833,526)"/>
<path d="M0 0 C0.99 0 1.98 0 3 0 C2.67 3.63 2.34 7.26 2 11 C-0.10814567 6.78370866 -0.17700355 4.60209225 0 0 Z " fill="#14171A" transform="translate(511,482)"/>
<path d="M0 0 C0.33 0.66 0.66 1.32 1 2 C1.99 2 2.98 2 4 2 C4 2.99 4 3.98 4 5 C3.21625 4.814375 2.4325 4.62875 1.625 4.4375 C-0.97089775 3.74037734 -0.97089775 3.74037734 -3 5 C-2.625 3.0625 -2.625 3.0625 -2 1 C-1.34 0.67 -0.68 0.34 0 0 Z " fill="#0B1115" transform="translate(1355,594)"/>
<path d="M0 0 C0.66 0 1.32 0 2 0 C2.66 3.3 3.32 6.6 4 10 C3.34 10 2.68 10 2 10 C-0.09350689 6.5980513 -0.17942163 3.94727588 0 0 Z " fill="#131518" transform="translate(305,527)"/>
<path d="M0 0 C0.61488281 0.19078125 1.22976563 0.3815625 1.86328125 0.578125 C0.74254263 1.41718065 -0.38346422 2.24920331 -1.51171875 3.078125 C-2.13820313 3.5421875 -2.7646875 4.00625 -3.41015625 4.484375 C-5.13671875 5.578125 -5.13671875 5.578125 -7.13671875 5.578125 C-5.92340024 1.93816948 -4.18071525 -0.82544286 0 0 Z " fill="#0F1216" transform="translate(850.13671875,352.421875)"/>
<path d="M0 0 C2.31 0 4.62 0 7 0 C6.67 1.32 6.34 2.64 6 4 C4.35 4 2.7 4 1 4 C1.33 3.34 1.66 2.68 2 2 C1.34 1.34 0.68 0.68 0 0 Z " fill="#0C1217" transform="translate(394,364)"/>
<path d="M0 0 C4.7517398 0.43197635 6.92000054 1.32769295 10 5 C5.45251397 5.36871508 5.45251397 5.36871508 3.3125 3.625 C2.879375 3.08875 2.44625 2.5525 2 2 C1.34 1.34 0.68 0.68 0 0 Z " fill="#101316" transform="translate(808,280)"/>
<path d="M0 0 C0.33 0.66 0.66 1.32 1 2 C1.99 2.33 2.98 2.66 4 3 C1.50907189 4.24546405 0.58919267 3.7767578 -2 3 C-2 3.66 -2 4.32 -2 5 C-2.66 5 -3.32 5 -4 5 C-4 3.68 -4 2.36 -4 1 C-2.68 0.67 -1.36 0.34 0 0 Z " fill="#0E1419" transform="translate(972,607)"/>
<path d="M0 0 C0 0.66 0 1.32 0 2 C-2.97 3.65 -5.94 5.3 -9 7 C-6.98222181 2.96444362 -4.85744506 0 0 0 Z " fill="#131214" transform="translate(427,527)"/>
<path d="M0 0 C2 4 2 4 1.8125 6.0625 C1 8 1 8 -2 11 C-1.34 7.37 -0.68 3.74 0 0 Z " fill="#17181B" transform="translate(497,507)"/>
<path d="M0 0 C0.66 0 1.32 0 2 0 C2.99 2.97 3.98 5.94 5 9 C4.01 8.67 3.02 8.34 2 8 C0.5522078 5.10441559 0 3.25811062 0 0 Z " fill="#121619" transform="translate(1322,507)"/>
<path d="M0 0 C0.33 0.99 0.66 1.98 1 3 C-1.97 5.475 -1.97 5.475 -5 8 C-5.66 6.35 -6.32 4.7 -7 3 C-6.34 3 -5.68 3 -5 3 C-5 3.66 -5 4.32 -5 5 C-3.35 3.35 -1.7 1.7 0 0 Z " fill="#000307" transform="translate(1276,390)"/>
<path d="M0 0 C2.475 0.99 2.475 0.99 5 2 C5 2.99 5 3.98 5 5 C1.125 6 1.125 6 0 6 C0 4.02 0 2.04 0 0 Z " fill="#0C1216" transform="translate(472,378)"/>
<path d="M0 0 C1.65 1.65 3.3 3.3 5 5 C4.67 5.66 4.34 6.32 4 7 C3.01 6.67 2.02 6.34 1 6 C1 5.34 1 4.68 1 4 C0.01 3.67 -0.98 3.34 -2 3 C-1.34 2.67 -0.68 2.34 0 2 C0 1.34 0 0.68 0 0 Z " fill="#0F1317" transform="translate(843,316)"/>
<path d="M0 0 C0.99 0 1.98 0 3 0 C3.33 2.31 3.66 4.62 4 7 C3.01 7.495 3.01 7.495 2 8 C0.74335022 5.09399739 0 3.20395416 0 0 Z " fill="#0E1114" transform="translate(1251,604)"/>
<path d="M0 0 C2.88575819 0.39803561 3.82189513 0.79009069 5.75 3.0625 C6.1625 3.701875 6.575 4.34125 7 5 C6.01 5 5.02 5 4 5 C4 4.34 4 3.68 4 3 C3.01 3.33 2.02 3.66 1 4 C0.67 2.68 0.34 1.36 0 0 Z " fill="#0C1115" transform="translate(1009,404)"/>
<path d="M0 0 C1.65 1.65 3.3 3.3 5 5 C3.68 5.33 2.36 5.66 1 6 C-0.0625 4.125 -0.0625 4.125 -1 2 C-0.67 1.34 -0.34 0.68 0 0 Z " fill="#0F151A" transform="translate(307,394)"/>
<path d="M0 0 C1.125 1.5 1.125 1.5 2 4 C1.57598348 6.7773082 0.81108065 9.29639783 0 12 C-0.33 12 -0.66 12 -1 12 C-1.08159574 7.83861737 -0.98248524 4.0527516 0 0 Z " fill="#171B1E" transform="translate(509,382)"/>
<path d="M0 0 C0.66 0.33 1.32 0.66 2 1 C0.75023244 4.65316671 0.32901247 5.78065836 -3 8 C-3 4.42424104 -1.91159393 2.94704065 0 0 Z " fill="#111417" transform="translate(856,344)"/>
<path d="M0 0 C3.2542015 2.83430453 4.5206753 4.68607774 5 9 C2.5 6.75 2.5 6.75 0 4 C0 2.68 0 1.36 0 0 Z " fill="#111417" transform="translate(114,620)"/>
<path d="M0 0 C0.66 0 1.32 0 2 0 C2 0.99 2 1.98 2 3 C2.66 3 3.32 3 4 3 C4.33 4.65 4.66 6.3 5 8 C4.01 8 3.02 8 2 8 C1.34 5.36 0.68 2.72 0 0 Z " fill="#111417" transform="translate(1256,422)"/>
</svg>
